<svg width="100" height="100" viewBox="0 0 100 100" fill="none" xmlns="http://www.w3.org/2000/svg">
<circle cx="50" cy="50" r="49.5" fill="black" stroke="white"/>
<path d="M47.0052 61.4107C47.2103 61.4107 47.3324 61.2789 47.3715 61.0152C47.4105 60.5953 47.85 57.0308 48.6898 50.3218C49.5297 43.6031 49.9545 40.2047 49.9642 40.1265C49.9838 40.107 50.2035 40.0972 50.6234 40.0972C51.8148 40.0972 53.89 40.1607 56.849 40.2877C57.3763 40.3072 57.8207 40.317 58.182 40.317C58.4457 40.317 58.6117 40.2974 58.6801 40.2584C58.7484 40.2193 58.7826 40.1412 58.7826 40.024C58.7826 39.9068 58.724 39.8189 58.6068 39.7603C58.4115 39.7017 56.7855 39.6089 53.7289 39.482C52.5277 39.4429 51.3021 39.4234 50.0521 39.4234C50.0521 39.0621 49.9545 38.8716 49.7592 38.8521C49.5834 38.8521 49.4564 38.9644 49.3783 39.189L49.3197 39.4088L45.4525 39.482C44.9349 39.5113 44.2953 39.565 43.5336 39.6431C42.9769 39.692 42.5521 39.7408 42.2592 39.7896C41.976 39.8287 41.7855 39.8775 41.6879 39.9361C41.6 39.9849 41.556 40.063 41.556 40.1705C41.556 40.3072 41.6097 40.3902 41.7172 40.4195C41.7562 40.4293 41.8148 40.4341 41.8929 40.4341C42.0199 40.4341 42.1908 40.4195 42.4056 40.3902C43.2064 40.2925 44.1342 40.2193 45.1888 40.1705C46.2533 40.1216 47.1859 40.0972 47.9867 40.0972C48.7875 40.0972 49.2074 40.1314 49.2465 40.1998C49.2367 40.2974 49.1097 41.3277 48.8656 43.2906C48.6215 45.2535 48.3236 47.69 47.972 50.6002L47.474 54.6285C47.3666 55.4586 47.2347 56.5279 47.0785 57.8365C46.9613 58.7252 46.8832 59.3795 46.8441 59.7994C46.7562 60.5025 46.7123 60.9224 46.7123 61.0591C46.7123 61.1763 46.7172 61.2398 46.7269 61.2496C46.7367 61.2691 46.7465 61.2789 46.7562 61.2789C46.766 61.2886 46.7709 61.2984 46.7709 61.3082C46.849 61.3765 46.9271 61.4107 47.0052 61.4107Z" fill="white"/>
</svg>
